<?xml version="1.0" encoding="utf-8"?>
<!-- Generator: Adobe Illustrator 16.0.0, SVG Export Plug-In . SVG Version: 6.00 Build 0)  -->
<!DOCTYPE svg PUBLIC "-//W3C//DTD SVG 1.1//EN" "http://www.w3.org/Graphics/SVG/1.1/DTD/svg11.dtd">
<svg version="1.1" id="Layer_1" xmlns="http://www.w3.org/2000/svg" xmlns:xlink="http://www.w3.org/1999/xlink" x="0px" y="0px"
	 width="261px" height="126px" viewBox="0 0 261 126" enable-background="new 0 0 261 126" xml:space="preserve">
<rect fill="#FFFFFF" width="261" height="36"/>
<rect y="36" fill="#00CC00" width="130" height="90"/>
<rect x="130" y="36" fill="#CCCC00" width="131" height="90"/>
<path d="M145.853,19.731L145.853,19.731L145.853,19.731L145.853,19.731L145.853,19.731L145.853,19.731L145.853,19.731
	L145.853,19.731h-0.003l0,0l0,0l0,0v0.002h0.002l0,0l0,0h0.001l0,0C145.853,19.733,145.853,19.733,145.853,19.731L145.853,19.731z
	 M145.852,19.733v-0.002l0,0l0,0l0,0l0,0l0,0l0,0l0,0l0,0V19.733z M145.853,19.731L145.853,19.731L145.853,19.731L145.853,19.731
	L145.853,19.731L145.853,19.731L145.853,19.731z M145.853,19.733v-0.002l0,0l0,0V19.733z M145.853,19.731L145.853,19.731
	L145.853,19.731L145.853,19.731L145.853,19.731z"/>
<g>
	<g>
		<path d="M39.458,27.532c-0.756-2.096-3.054-2.508-4.883-2.938c-1.5-0.352-2.672-1.225-3.196-2.548
			c-1.319-2.907,1.204-5.083,1.553-7.733c0.175-1.306-0.584-2.331-1.297-3.325l1.212-1.383c2.015,1.029,4.84,0.767,6.611-0.604
			c1.771,1.371,4.596,1.635,6.61,0.606l1.212,1.383c-0.714,0.994-1.473,2.018-1.298,3.325c0.35,2.651,2.873,4.827,1.554,7.734
			c-0.524,1.323-1.697,2.196-3.196,2.548C42.512,25.025,40.213,25.437,39.458,27.532z"/>
	</g>
	<text transform="matrix(1 0 0 1 52.293 26.708)" font-family="'MyriadPro-Regular'" font-size="16">Atlanta Police Department</text>
</g>
<text transform="matrix(1 0 0 1 43 89)" fill="#FFFFFF" font-family="'MyriadPro-Regular'" font-size="48">93%</text>
<text transform="matrix(1 0 0 1 184.334 89)" fill="#FFFFFF" font-family="'MyriadPro-Regular'" font-size="48">-3%</text>
</svg>
