<?xml version="1.0" encoding="utf-8"?>
<!-- Generator: Adobe Illustrator 16.0.0, SVG Export Plug-In . SVG Version: 6.00 Build 0)  -->
<!DOCTYPE svg PUBLIC "-//W3C//DTD SVG 1.1//EN" "http://www.w3.org/Graphics/SVG/1.1/DTD/svg11.dtd">
<svg version="1.1" id="Layer_1" xmlns="http://www.w3.org/2000/svg" xmlns:xlink="http://www.w3.org/1999/xlink" x="0px" y="0px"
	 width="531px" height="126px" viewBox="0 0 531 126" enable-background="new 0 0 531 126" xml:space="preserve">
<rect fill="#FFFFFF" width="531" height="36"/>
<g>
	<text transform="matrix(1 0 0 1 186.333 26.6851)" font-family="'MyriadPro-Regular'" font-size="16">Department of Public Works</text>
	<g>
		<path d="M181.91,24.643l-1.326-3.375c-0.025-0.05-0.064-0.092-0.11-0.124c0,0-1.435-0.916-1.794-1.347
			c-0.325-0.389-0.646-1.292-1.004-1.759c-0.108-0.142-0.612-0.179-0.936,0.145c0,0-0.418,0.646-0.646,0.646
			c-0.646,0-0.763-0.316-1.032-0.316c-0.26,0-0.539,0.55-0.584,0.64l-0.588,1.424l-0.252,0.268l-1.219-0.975
			c-0.061-0.047-0.131-0.071-0.202-0.071c-0.095,0-0.188,0.042-0.252,0.122l-0.534,0.667l-2.135-0.915
			c-0.018-0.088-0.052-0.172-0.107-0.249l-1.494-2.093v-2.7c0-0.005-0.002-0.008-0.002-0.013c-0.01-1.286-1.618-2.249-2.906-2.249v0
			c-0.088,0-0.178,0.017-0.262,0.054l-2.908,1.292c-0.188,0.083-0.324,0.251-0.367,0.45l-0.646,2.908
			c-0.078,0.349,0.142,0.694,0.49,0.771c0.047,0.01,0.094,0.015,0.141,0.015c0.296,0,0.563-0.205,0.63-0.506l0.032-0.15l0.791,0.339
			v2.639l-2.43,3.341c-0.261,0.358-0.184,0.858,0.17,1.121h-0.81v2.584h23.261v-2.584H181.91z M170.674,21.533
			c-0.073,0.091-0.092,0.214-0.049,0.321c0.043,0.108,0.141,0.185,0.255,0.201l1.432,0.205l-0.417,0.444
			c0,0-1.037,0.195-1.292,0.324c-0.646,0.323-0.585,0.542-0.646,0.646c-0.282,0.484-0.97,0.969-0.97,0.969h-1.78
			c0.198-0.147,0.327-0.381,0.327-0.646v-3.231c0-0.16-0.047-0.315-0.136-0.449l-0.708-1.061l1.145,0.49l0.305,0.426
			c0.125,0.177,0.324,0.271,0.525,0.271c0.131,0,0.262-0.04,0.375-0.121c0.018-0.012,0.03-0.027,0.046-0.04l1.928,0.826
			L170.674,21.533z M166.08,16.566c0.077-0.119,0.191-0.271,0.322-0.436v1.405c0,0.135,0.043,0.267,0.121,0.375l0.588,0.823
			l-1.077-0.461l-0.278-0.417v-0.644C165.798,17.036,165.98,16.717,166.08,16.566z M162.439,14.762l1.596-0.709l-1.201,2.697
			c-0.026,0.038-0.049,0.078-0.069,0.121l-0.725-0.311L162.439,14.762z M161.564,24.471l2.584-3.554
			c0.1-0.138,0.154-0.305,0.154-0.475v-1.855l1.615,2.423v2.987c0,0.265,0.13,0.499,0.328,0.646h-4.858
			C161.453,24.594,161.514,24.54,161.564,24.471z"/>
		<circle cx="166.887" cy="10.912" r="1.454"/>
	</g>
</g>
<rect x="133" y="36" fill="#00CC00" width="133" height="90"/>
<rect x="266" y="36" fill="#00CC00" width="133" height="90"/>
<rect y="36" fill="#CCCC00" width="133" height="90"/>
<rect x="399" y="36" fill="#CCCC00" width="133" height="90"/>
<text transform="matrix(1 0 0 1 47 89)" fill="#FFFFFF" font-family="'MyriadPro-Regular'" font-size="48">87%</text>
<text transform="matrix(1 0 0 1 445 89)" fill="#FFFFFF" font-family="'MyriadPro-Regular'" font-size="48">96%</text>
<text transform="matrix(1 0 0 1 295.5 89)" fill="#FFFFFF" font-family="'MyriadPro-Regular'" font-size="48" letter-spacing="-2">100%</text>
<text transform="matrix(1 0 0 1 162.4995 89)" fill="#FFFFFF" font-family="'MyriadPro-Regular'" font-size="48" letter-spacing="-2">100%</text>
</svg>
