<?xml version="1.0" encoding="utf-8"?>
<!-- Generator: Adobe Illustrator 16.0.0, SVG Export Plug-In . SVG Version: 6.00 Build 0)  -->
<!DOCTYPE svg PUBLIC "-//W3C//DTD SVG 1.1//EN" "http://www.w3.org/Graphics/SVG/1.1/DTD/svg11.dtd">
<svg version="1.1" id="Layer_1" xmlns="http://www.w3.org/2000/svg" xmlns:xlink="http://www.w3.org/1999/xlink" x="0px" y="0px"
	 width="100px" height="44.203px" viewBox="0 0 100 44.203" enable-background="new 0 0 100 44.203" xml:space="preserve">
<path d="M15.042,14.134l7.742-3.234l35.167,0.493l23.344-9.006l0,0c1.576-0.645,2.959-1.13,4.229-1.487
	c1.262-0.356,1.854-0.568,3.322-0.674c1.441-0.134,3.647-0.376,5.328-0.098c1.643,0.223,3.628,0.744,4.555,1.673
	c0.929,0.963,1.823,2.508,0.851,3.967c-1.052,1.389-0.927,1.892-6.951,4.448c-6.093,2.57-15.591,6.072-29.054,10.773l0,0
	L50.875,39.693l-12,4.51l7.552-17.239L28.41,32.445l0,0c-6.501-1.813-11.926-3.609-16.566-5.387
	c-4.659-1.814-9.3-3.803-11.047-5.291c-1.708-1.484-0.295-2.971,0.783-3.522c1.062-0.557,1.327-0.666,5.52,0.205
	c4.218,0.838,10.598,2.472,19.468,4.893l0,0l11.714-3.919l0,0C30.537,17.667,22.793,15.902,15.042,14.134L15.042,14.134z"/>
</svg>
