<?xml version="1.0" encoding="utf-8"?>
<!-- Generator: Adobe Illustrator 16.0.0, SVG Export Plug-In . SVG Version: 6.00 Build 0)  -->
<!DOCTYPE svg PUBLIC "-//W3C//DTD SVG 1.1//EN" "http://www.w3.org/Graphics/SVG/1.1/DTD/svg11.dtd">
<svg version="1.1" id="Layer_1" xmlns="http://www.w3.org/2000/svg" xmlns:xlink="http://www.w3.org/1999/xlink" x="0px" y="0px"
	 width="100px" height="33.285px" viewBox="0 0 100 33.285" enable-background="new 0 0 100 33.285" xml:space="preserve">
<g>
	<path d="M18.309,33.285L18.309,33.285c-0.002,0-0.006,0-0.009,0l0,0c-2.521-0.008-4.558-2.526-4.559-5.635l0,0
		c0-0.024,0-0.045,0-0.063l0,0c0.025-3.088,2.06-5.579,4.567-5.58l0,0c2.522,0.001,4.567,2.523,4.568,5.637l0,0
		c0,0.004,0,0.008,0,0.019l0,0C22.87,30.77,20.828,33.285,18.309,33.285L18.309,33.285L18.309,33.285z M18.303,29.587
		c0.002,0,0.003,0,0.006,0l0,0c0.864,0,1.568-0.866,1.569-1.928l0,0c0-0.007,0-0.011,0-0.017l0,0c0-1.067-0.704-1.935-1.569-1.936
		l0,0c-0.866,0.001-1.567,0.867-1.568,1.936l0,0v0.047v0.002C16.757,28.74,17.452,29.585,18.303,29.587L18.303,29.587L18.303,29.587
		L18.303,29.587z"/>
	<path d="M59.219,33.285L59.219,33.285c-0.004,0-0.007,0-0.01,0l0,0c-2.466-0.006-4.458-2.526-4.459-5.635l0,0
		c0-0.002,0-0.004,0-0.006l0,0l0,0c0.001-3.114,2-5.636,4.469-5.637l0,0c2.468,0.001,4.466,2.521,4.469,5.635l0,0l0,0v0.002
		c0,0.004,0,0.008,0,0.019l0,0C63.68,30.771,61.682,33.285,59.219,33.285L59.219,33.285L59.219,33.285z M59.212,29.585
		c0.002,0,0.005,0,0.007,0l0,0c0.844,0.002,1.534-0.864,1.534-1.926l0,0c0-0.007,0-0.011,0-0.017l0,0
		c0-1.067-0.688-1.935-1.534-1.938l0,0c-0.846,0.003-1.533,0.869-1.535,1.938l0,0v0.056C57.703,28.743,58.381,29.584,59.212,29.585
		L59.212,29.585L59.212,29.585L59.212,29.585z"/>
	<path d="M77.289,0.001l-15.685,0.03l-9.991,0.03l-10,0.022l-9.998,0.03l-9.993,0.023L2.747,0.047
		c-0.643,0.057-1.158,0.565-1.187,1.3L1.079,14.65L0,15.668v6.506l0.019,4.994c-0.02,1.325,0.796,2.032,1.608,2.061h11.678
		c-0.104-0.504-0.16-1.031-0.16-1.576c0-0.029,0-0.053,0-0.069c0.027-3.487,2.338-6.302,5.187-6.303
		c2.867,0.001,5.188,2.85,5.189,6.362v0.022c0,0.538-0.057,1.062-0.161,1.562h17.23L54.24,29.27
		c-0.11-0.518-0.168-1.061-0.168-1.619v-0.01c0-3.513,2.321-6.36,5.188-6.36c2.865,0,5.184,2.847,5.186,6.36v0.023
		c-0.002,0.57-0.063,1.123-0.179,1.646l17.183-4.187l0.098-20.55C81.576,2.24,79.199-0.069,77.289,0.001z M12.538,24.37
		c0,0.784-0.642,1.417-1.438,1.417H7.512c-0.797,0-1.438-0.633-1.438-1.417V6.51c0-0.787,0.642-1.418,1.438-1.418h3.587
		c0.797,0,1.438,0.632,1.438,1.418L12.538,24.37L12.538,24.37z M34.556,12.27c0,0.786-0.641,1.418-1.438,1.418H18.304
		c-0.796,0-1.437-0.632-1.437-1.418V6.45c0-0.786,0.641-1.418,1.437-1.418h14.815c0.796,0,1.438,0.633,1.438,1.418V12.27z
		 M55.723,12.27c0,0.786-0.642,1.418-1.438,1.418H39.47c-0.796,0-1.438-0.632-1.438-1.418V6.45c0-0.786,0.641-1.418,1.438-1.418
		h14.814c0.797,0,1.438,0.633,1.438,1.418V12.27z M76.819,12.27c0,0.786-0.641,1.418-1.438,1.418H60.574
		c-0.795,0-1.438-0.632-1.438-1.418V6.45c0-0.786,0.643-1.418,1.438-1.418h14.808c0.797,0,1.438,0.633,1.438,1.418V12.27z"/>
</g>
</svg>
