<svg xmlns="http://www.w3.org/2000/svg" xmlns:xlink="http://www.w3.org/1999/xlink" version="1.1" x="0px" y="0px" width="100px" height="100px" viewBox="0 0 100 100" enable-background="new 0 0 100 100" xml:space="preserve">
<g id="Captions">
</g>
<g id="Your_Icon">
	<path d="M61.176,89.63h-9.394V66.89H35.062c-18.151,0-32.918-14.767-32.918-32.918S16.91,1.053,35.062,1.053   c11.982,0,22.972,6.597,28.727,16.841c2.724-0.979,5.609-1.485,8.536-1.485c13.917,0,25.24,11.323,25.24,25.241   c0,13.918-11.323,25.241-25.24,25.241v-9.394c8.738,0,15.847-7.109,15.847-15.847c0-8.738-7.108-15.847-15.847-15.847   c-2.946,0-5.823,0.816-8.322,2.361l-4.88,3.018L57.128,25.8c-3.401-9.184-12.269-15.354-22.066-15.354   C22.09,10.446,11.537,21,11.537,33.972c0,12.972,10.553,23.524,23.524,23.524h26.114V89.63z"/>
	<g>
		<path d="M38.641,80.01l5.573-5.184L55.37,86.814l12.482-11.615l5.185,5.571L57.771,94.979c-0.74,0.688-1.721,1.054-2.729,1.018    c-1.011-0.037-1.962-0.472-2.65-1.211L38.641,80.01z"/>
	</g>
</g>
</svg>