<?xml version="1.0" encoding="utf-8"?>
<!-- Generator: Adobe Illustrator 16.0.0, SVG Export Plug-In . SVG Version: 6.00 Build 0)  -->
<!DOCTYPE svg PUBLIC "-//W3C//DTD SVG 1.1//EN" "http://www.w3.org/Graphics/SVG/1.1/DTD/svg11.dtd">
<svg version="1.1" id="Layer_1" xmlns="http://www.w3.org/2000/svg" xmlns:xlink="http://www.w3.org/1999/xlink" x="0px" y="0px"
	 width="78.814px" height="100px" viewBox="0 0 78.814 100" enable-background="new 0 0 78.814 100" xml:space="preserve">
<path fill="#010101" d="M68.402,11.61l-4.63-4.69H36.219C33.851,2.786,29.397,0,24.295,0c-7.589,0-13.738,6.149-13.738,13.737
	c0,7.587,6.149,13.74,13.738,13.74c5.165,0,9.662-2.855,12.009-7.068h5.388l4.273-4.329l3.285,3.331l3.29-3.331l3.284,3.331
	l3.344-3.387l3.425,3.47l0.082-0.028l5.752-5.829C69.089,12.972,69.13,12.347,68.402,11.61z M18.291,17.213
	c-2.038,0-3.69-1.65-3.69-3.689c0-2.037,1.652-3.69,3.69-3.69c2.039,0,3.688,1.651,3.688,3.69S20.329,17.213,18.291,17.213z"/>
<polygon fill="#010101" points="0,31.943 0,63.878 9.212,63.878 9.212,41.063 69.234,41.063 69.234,89.988 9.212,89.988 
	9.212,67.074 0,67.074 0,100 78.814,100 78.814,31.943 "/>
<g>
	<path fill="#010101" d="M20.964,45.377c-2.357,0-4.273,1.917-4.273,4.275s1.917,4.28,4.273,4.28c2.355,0,4.278-1.922,4.278-4.28
		S23.318,45.377,20.964,45.377z"/>
	<path fill="#010101" d="M16.784,70.602V86.95h8.389V70.602h3.142v-8.207c0-4.056-3.3-7.352-7.352-7.352
		c-4.057,0-7.354,3.296-7.354,7.352v8.207H16.784z"/>
</g>
<g>
	<path fill="#010101" d="M39.288,45.377c-2.357,0-4.273,1.917-4.273,4.275s1.916,4.28,4.273,4.28c2.355,0,4.278-1.922,4.278-4.28
		C43.567,47.294,41.645,45.377,39.288,45.377z"/>
	<path fill="#010101" d="M35.109,70.602V86.95H43.5V70.602h3.142v-8.207c0-4.056-3.302-7.352-7.353-7.352
		c-4.056,0-7.353,3.296-7.353,7.352v8.207H35.109z"/>
</g>
<g>
	<path fill="#010101" d="M57.61,45.377c-2.356,0-4.273,1.917-4.273,4.275s1.917,4.28,4.273,4.28s4.278-1.922,4.278-4.28
		C61.89,47.294,59.967,45.377,57.61,45.377z"/>
	<path fill="#010101" d="M53.433,70.602V86.95h8.389V70.602h3.144v-8.207c0-4.056-3.301-7.352-7.354-7.352
		c-4.058,0-7.354,3.296-7.354,7.352v8.207H53.433z"/>
</g>
</svg>
