<svg xmlns="http://www.w3.org/2000/svg" xmlns:xlink="http://www.w3.org/1999/xlink" version="1.1" id="Your_Icon" x="0px" y="0px" width="100px" height="100px" viewBox="0 0 100 100" enable-background="new 0 0 100 100" xml:space="preserve">
<g>
	<path fill="#000000" d="M74.116,50.686c0,0,0.564,1.539,2.626,1.539c0,0,12.771,0,14.871,0s1.191-1.693,1.191-1.693L86.98,37.776   c-0.39-0.938-1.495-0.763-1.495-0.763c-3.417,0-14.935,0-16.078,0c-1.374,0-0.763,1.305-0.763,1.305   C69.168,39.45,74.116,50.686,74.116,50.686z"/>
	<path fill="#000000" d="M72.717,56.148c-0.745-0.102-1.626-0.403-1.964-1.249c-0.954-2.305-7.556-17.08-7.556-17.08   s-0.867-2.125-3.627-2.125H18.775c-2.847,0-3.628,2.125-3.628,2.125S8.64,52.756,7.591,54.899   c-0.338,0.846-1.218,1.147-1.963,1.249H0.75v8.602h98.333v-8.602H72.717z"/>
</g>
</svg>