<?xml version="1.0" encoding="utf-8"?>
<!-- Generator: Adobe Illustrator 16.0.0, SVG Export Plug-In . SVG Version: 6.00 Build 0)  -->
<!DOCTYPE svg PUBLIC "-//W3C//DTD SVG 1.1//EN" "http://www.w3.org/Graphics/SVG/1.1/DTD/svg11.dtd">
<svg version="1.1" id="Layer_1" xmlns="http://www.w3.org/2000/svg" xmlns:xlink="http://www.w3.org/1999/xlink" x="0px" y="0px"
	 width="98.357px" height="100px" viewBox="0 0 98.357 100" enable-background="new 0 0 98.357 100" xml:space="preserve">
<path d="M0,27.137l5.144,64.738c0,3.867,11.015,7,24.608,7c13.595,0,24.622-3.133,24.622-7l5.13-64.738H0z M14.622,91.107
	c-0.025,0-0.052,0-0.078,0c-1.016,0-1.861-0.808-1.9-1.821l-2.278-53.139c-0.039-1.048,0.781-1.94,1.823-1.985
	c0.977-0.111,1.927,0.774,1.979,1.823l2.279,53.137C16.484,90.17,15.677,91.062,14.622,91.107z M31.653,89.232
	c0,1.05-0.846,1.901-1.901,1.901c-1.042,0-1.9-0.854-1.9-1.901V36.096c0-1.048,0.858-1.901,1.9-1.901
	c1.056,0,1.901,0.853,1.901,1.901V89.232z M46.874,89.317c-0.052,1.016-0.885,1.816-1.9,1.816c-0.039,0-0.053,0-0.092,0
	c-1.042-0.047-1.861-0.932-1.81-1.979l2.265-53.144c0.053-1.048,0.833-1.959,1.992-1.816c1.042,0.046,1.862,0.938,1.811,1.979
	L46.874,89.317z"/>
<path d="M39.736,14.518l-3.115,0.007c-0.004-1.809-0.702-3.507-1.981-4.788c-1.292-1.282-2.963-1.961-4.793-1.979
	c-3.736,0.004-6.771,3.04-6.781,6.779l-3.024,0.009c-16.446,0.016-19.935,7.88-19.93,11.206l59.582-0.061
	C59.676,22.355,56.169,14.505,39.736,14.518z M26.88,14.533c0-0.798,0.306-1.54,0.861-2.1c0.568-0.56,1.305-0.867,2.109-0.867
	c1.65-0.003,2.96,1.333,2.955,2.963L26.88,14.533z"/>
</svg>
