<?xml version="1.0" encoding="utf-8"?>
<!-- Generator: Adobe Illustrator 16.0.0, SVG Export Plug-In . SVG Version: 6.00 Build 0)  -->
<!DOCTYPE svg PUBLIC "-//W3C//DTD SVG 1.1//EN" "http://www.w3.org/Graphics/SVG/1.1/DTD/svg11.dtd">
<svg version="1.1" id="Layer_1" xmlns="http://www.w3.org/2000/svg" xmlns:xlink="http://www.w3.org/1999/xlink" x="0px" y="0px"
	 width="100px" height="100px" viewBox="0 0 100 100" enable-background="new 0 0 100 100" xml:space="preserve">
<path d="M95.459,56.05c-3.986-3.112-10.361-3.338-12.734-3.308L82.188,41.16c0,0,0.09-1.665-1.348-2.971l-5.264-4.376l-2.078,0.096
	c-0.346-0.309-0.697-0.612-1.059-0.905c-3.619-4.794-9.541-7.863-16.147-7.813c-1.625-0.309-3.323-0.437-5.062-0.357
	c-6.975,0.325-12.951,3.894-16.241,9.01c-5.803,5.129-9.298,12.523-8.922,20.58l0.028,0.624l-2.456,0.101
	c0,0-10.442,0.194-16.987,2.246c-5.959,1.869-6.541,3.817-6.1,4.525c1.279,2.064,8.545,2.786,15.703,4.044
	c7.154,1.261,20.177,4.236,24.955,5.207c4.777,0.97,17.599,5.283,32.377,3.665c14.781-1.617,19.862-4.807,23.029-7.966
	C100.387,63.116,98.641,58.539,95.459,56.05z M79.82,39.237c1.231,1.203,1.16,2.728,1.16,2.728l0.75,16.071
	c0,0-2.266,2.455-4.24,3.474c-5.26,2.729-10.211,3.26-10.211,3.26l-0.805-17.35c-0.063-1.362,0.723-3.462,1.601-4.501l0.085-0.156
	l7.145-7.552L79.82,39.237z M71.452,33.801l-3.374,3.326c-0.525-0.865-1.081-1.687-1.671-2.451
	c-3.472-4.479-8.117-8.505-13.062-8.557C60.23,25.962,66.62,29.125,71.452,33.801z M52.844,26.126c0.014,0,0.03,0,0.042,0
	c-0.018,0-0.038,0-0.052,0C52.836,26.126,52.84,26.126,52.844,26.126z M47.309,27.803c1.211-0.6,2.469-1.095,3.769-1.479
	l-2.012,3.866c-0.241,0.1-0.478,0.205-0.709,0.312c-1.275,0.59-2.498,1.306-3.652,2.13c-2.312,1.651-4.369,3.747-6.088,6.184
	c-3.443,4.87-5.551,11.117-5.708,17.923H32.9c-0.068,0.431-0.437,0.776-0.897,0.796c-0.525,0.023-0.971-0.375-0.994-0.893
	c-0.004-0.033,0.004-0.057,0.004-0.084h-0.008C31.198,43.638,37.786,32.523,47.309,27.803z"/>
</svg>
