<?xml version="1.0" encoding="utf-8"?>
<!-- Generator: Adobe Illustrator 16.0.0, SVG Export Plug-In . SVG Version: 6.00 Build 0)  -->
<!DOCTYPE svg PUBLIC "-//W3C//DTD SVG 1.1//EN" "http://www.w3.org/Graphics/SVG/1.1/DTD/svg11.dtd">
<svg version="1.1" id="Layer_1" xmlns="http://www.w3.org/2000/svg" xmlns:xlink="http://www.w3.org/1999/xlink" x="0px" y="0px"
	 width="100px" height="100px" viewBox="0 0 100 100" enable-background="new 0 0 100 100" xml:space="preserve">
<g id="Captions">
</g>
<g id="Your_Icon">
	<g>
		<path d="M82.715,76.614C81.916,76.63,82,76.646,81,76.157v2.731v6.834C81,87.294,82.221,88,83.221,88h0.899
			c1,0,0.88-0.706,0.88-2.277v-9.328C85,76.709,83.33,76.602,82.715,76.614z"/>
		<path d="M69.005,61.46c6.286-0.093,11.438-5.678,11.517-11.987c0.008-0.489-0.021-0.973-0.076-1.454
			c-0.008-0.068-0.025-0.135-0.033-0.205c-0.057-0.418-0.129-0.833-0.229-1.24c-0.007-0.026-0.018-0.052-0.023-0.078
			c-0.446-1.767-1.301-3.411-2.498-4.794c-0.048-0.055-0.102-0.103-0.148-0.157c-0.246-0.272-0.494-0.542-0.765-0.791
			c-0.331-0.306-0.681-0.595-1.049-0.864l-0.089-0.064l-1.039-0.757l0.857-1.1c0.686-0.877,1.047-1.926,1.047-3.033
			c0-2.318-1.645-4.353-3.91-4.835l-1.006-0.214l-0.06-1.028c-0.297-5.155-4.019-9.559-9.046-10.71l-1.354-0.309l0.342-1.342
			c0.113-0.438,0.162-0.868,0.168-1.281c0.019-1.439-0.662-2.8-1.668-3.831C58.939,10.357,56,9.779,56,9.762v0.014
			c-3,0-5.268,2.402-5.303,5.336l0.154,2.281l-1.873-0.483c-6.662-1.291-9.786,2.78-9.835,6.695
			c-0.019,1.521,0.447,2.652,1.334,3.902l0.934,1.26l-1.453,0.667c-5.955,2.815-9.802,8.876-9.802,15.438
			c0,7.948,5.405,14.801,13.145,16.634l0.585,0.189l0.289,0.865c0.96,1.758,2.34,3.316,3.969,4.476
			c0.571,0.405,1.172,0.705,1.799,1.002C51.305,68.684,52.777,69,54.295,69h0.148c1.566,0,3.091-0.32,4.494-0.975
			c0.307-0.141,0.605-0.267,0.899-0.435c2.212-1.271,4.054-3.243,5.162-5.581l0.452-1.228C65.452,60.783,66.432,61.378,69.005,61.46
			z"/>
		<path d="M54.295,71C53.128,71,52,71.631,51,71.305v13.098C51,86.886,52.125,88,53.705,88h0.572C55.857,88,57,86.886,57,84.402
			V73.609v-2.073C56,71.715,55.355,71,54.443,71H54.295z"/>
		<path d="M93.607,50.879l-0.92-0.456l0.588-0.872c0.562-0.79,0.852-1.865,0.841-2.829C94.086,44.244,92.044,42,89.566,42H89.51
			c-0.555,0-1.103,0.347-1.63,0.559l-1.204,0.677l0.039-1.409c-0.021-1.857-1.553-3.361-3.454-3.361l0,0
			c-0.911,0.011-1.764,0.382-2.399,1.035c-0.305,0.312-0.538,0.677-0.701,1.068c1.988,2.561,3.102,5.76,3.061,9.051
			c-0.094,7.501-5.507,14.323-15.205,14.944c0.508,3.545,3.551,6.336,7.209,6.39c0.035,0,0.07,0.046,0.106,0.046h0.095
			c0.451,0,0.92-0.105,1.391-0.201l0.654-0.158l0.287,0.37C78.979,73.585,81.604,75,84.439,75h0.095
			c2.669,0,5.123-1.277,6.405-3.629l0.182-0.2l0.371-0.038c4.898-1.16,8.32-5.463,8.32-10.494
			C99.813,56.482,97.378,52.662,93.607,50.879z"/>
		<path d="M44,73.609c-1.242,0-2,1.007-2,2.248V79H9v-3.143c0-1.241-0.758-2.248-2-2.248c-1.241,0-2,1.007-2,2.248V88h4v-6h33v6h4
			V75.857C46,74.616,45.242,73.609,44,73.609z"/>
		<path d="M40,66.799C40,65.807,39.195,65,38.201,65H12.799C11.805,65,11,65.807,11,66.799v1.402C11,69.193,11.805,70,12.799,70
			h25.402C39.195,70,40,69.193,40,68.201V66.799z"/>
		<path d="M40,72.798C40,71.805,39.195,71,38.201,71H12.799C11.805,71,11,71.805,11,72.798v1.404C11,75.195,11.805,76,12.799,76
			h25.402C39.195,76,40,75.195,40,74.202V72.798z"/>
		<circle cx="16.188" cy="30.661" r="6.584"/>
		<path d="M10.445,21.271c0.273,0.666,1.035,0.983,1.701,0.71c0.666-0.274,0.984-1.035,0.71-1.701l-1.486-3.617
			c-0.273-0.666-1.036-0.984-1.701-0.71c-0.666,0.274-0.984,1.036-0.711,1.702L10.445,21.271z"/>
		<path d="M21.56,44.89c0.666-0.274,0.984-1.036,0.71-1.701l-1.486-3.618c-0.273-0.666-1.036-0.983-1.701-0.709
			c-0.666,0.274-0.984,1.036-0.711,1.701l1.486,3.617C20.132,44.845,20.894,45.162,21.56,44.89z"/>
		<path d="M6.566,29.248c0.092-0.715-0.411-1.368-1.125-1.46l-3.878-0.503c-0.714-0.092-1.367,0.411-1.46,1.126
			c-0.093,0.713,0.411,1.368,1.125,1.459l3.878,0.503C5.819,30.465,6.474,29.961,6.566,29.248z"/>
		<path d="M24.663,31.591c-0.093,0.713,0.411,1.367,1.125,1.46l3.877,0.502c0.714,0.092,1.369-0.411,1.461-1.125
			c0.093-0.714-0.412-1.368-1.125-1.46l-3.878-0.502C25.409,30.374,24.755,30.877,24.663,31.591z"/>
		<path d="M8.377,42.865l2.264-3.188c0.417-0.587,0.278-1.4-0.309-1.817s-1.4-0.278-1.817,0.308l-2.264,3.189
			c-0.416,0.585-0.278,1.4,0.31,1.816C7.146,43.59,7.96,43.453,8.377,42.865z"/>
		<path d="M20.896,22.982c0.586,0.416,1.399,0.278,1.816-0.309l2.264-3.188c0.417-0.586,0.278-1.401-0.308-1.817
			c-0.588-0.417-1.401-0.279-1.818,0.309l-2.263,3.188C20.171,21.751,20.308,22.564,20.896,22.982z"/>
	</g>
</g>
<g id="Your_Icon_1_">
	<g>
		<path d="M82.715,77.614C81.916,77.63,82,77.646,81,77.157v2.731v6.834C81,88.294,82.221,89,83.221,89h0.899
			c1,0,0.88-0.706,0.88-2.277v-9.328C85,77.709,83.33,77.602,82.715,77.614z"/>
		<path d="M69.005,62.46c6.286-0.093,11.438-5.678,11.517-11.987c0.008-0.489-0.021-0.973-0.076-1.454
			c-0.008-0.068-0.025-0.135-0.033-0.205c-0.057-0.418-0.129-0.833-0.229-1.24c-0.007-0.026-0.018-0.052-0.023-0.078
			c-0.446-1.767-1.301-3.411-2.498-4.794c-0.048-0.055-0.102-0.103-0.148-0.157c-0.246-0.272-0.494-0.542-0.765-0.791
			c-0.331-0.306-0.681-0.595-1.049-0.864l-0.089-0.064l-1.039-0.757l0.857-1.1c0.686-0.877,1.047-1.926,1.047-3.033
			c0-2.318-1.645-4.353-3.91-4.835l-1.006-0.214l-0.06-1.028c-0.297-5.155-4.019-9.559-9.046-10.71l-1.354-0.309l0.342-1.342
			c0.113-0.438,0.162-0.868,0.168-1.281c0.019-1.439-0.662-2.8-1.668-3.831C58.939,11.357,56,10.779,56,10.762v0.014
			c-3,0-5.268,2.402-5.303,5.336l0.154,2.281l-1.873-0.483c-6.662-1.291-9.786,2.78-9.835,6.695
			c-0.019,1.521,0.447,2.652,1.334,3.902l0.934,1.26l-1.453,0.667c-5.955,2.815-9.802,8.876-9.802,15.438
			c0,7.948,5.405,14.801,13.145,16.634l0.585,0.189l0.289,0.865c0.96,1.758,2.34,3.316,3.969,4.476
			c0.571,0.405,1.172,0.705,1.799,1.002C51.305,69.684,52.777,70,54.295,70h0.148c1.566,0,3.091-0.32,4.494-0.975
			c0.307-0.141,0.605-0.267,0.899-0.435c2.212-1.271,4.054-3.243,5.162-5.581l0.452-1.228C65.452,61.783,66.432,62.378,69.005,62.46
			z"/>
		<path d="M54.295,72C53.128,72,52,72.631,51,72.305v13.098C51,87.886,52.125,89,53.705,89h0.572C55.857,89,57,87.886,57,85.402
			V74.609v-2.073C56,72.715,55.355,72,54.443,72H54.295z"/>
		<path d="M93.607,51.879l-0.92-0.456l0.588-0.872c0.562-0.79,0.852-1.865,0.841-2.829C94.086,45.244,92.044,43,89.566,43H89.51
			c-0.555,0-1.103,0.347-1.63,0.559l-1.204,0.677l0.039-1.409c-0.021-1.857-1.553-3.361-3.454-3.361l0,0
			c-0.911,0.011-1.764,0.382-2.399,1.035c-0.305,0.312-0.538,0.677-0.701,1.068c1.988,2.561,3.102,5.76,3.061,9.051
			c-0.094,7.501-5.507,14.323-15.205,14.944c0.508,3.545,3.551,6.336,7.209,6.39c0.035,0,0.07,0.046,0.106,0.046h0.095
			c0.451,0,0.92-0.105,1.391-0.201l0.654-0.158l0.287,0.37C78.979,74.585,81.604,76,84.439,76h0.095
			c2.669,0,5.123-1.277,6.405-3.629l0.182-0.2l0.371-0.038c4.898-1.16,8.32-5.463,8.32-10.494
			C99.813,57.482,97.378,53.662,93.607,51.879z"/>
		<path d="M44,74.609c-1.242,0-2,1.007-2,2.248V80H9v-3.143c0-1.241-0.758-2.248-2-2.248c-1.241,0-2,1.007-2,2.248V89h4v-6h33v6h4
			V76.857C46,75.616,45.242,74.609,44,74.609z"/>
		<path d="M40,67.799C40,66.807,39.195,66,38.201,66H12.799C11.805,66,11,66.807,11,67.799v1.402C11,70.193,11.805,71,12.799,71
			h25.402C39.195,71,40,70.193,40,69.201V67.799z"/>
		<path d="M40,73.798C40,72.805,39.195,72,38.201,72H12.799C11.805,72,11,72.805,11,73.798v1.404C11,76.195,11.805,77,12.799,77
			h25.402C39.195,77,40,76.195,40,75.202V73.798z"/>
		<circle cx="16.188" cy="31.661" r="6.584"/>
		<path d="M10.445,22.271c0.273,0.666,1.035,0.983,1.701,0.71c0.666-0.274,0.984-1.035,0.71-1.701l-1.486-3.617
			c-0.273-0.666-1.036-0.984-1.701-0.71c-0.666,0.274-0.984,1.036-0.711,1.702L10.445,22.271z"/>
		<path d="M21.56,45.89c0.666-0.274,0.984-1.036,0.71-1.701l-1.486-3.618c-0.273-0.666-1.036-0.983-1.701-0.709
			c-0.666,0.274-0.984,1.036-0.711,1.701l1.486,3.617C20.132,45.845,20.894,46.162,21.56,45.89z"/>
		<path d="M6.566,30.248c0.092-0.715-0.411-1.368-1.125-1.46l-3.878-0.503c-0.714-0.092-1.367,0.411-1.46,1.126
			c-0.093,0.713,0.411,1.368,1.125,1.459l3.878,0.503C5.819,31.465,6.474,30.961,6.566,30.248z"/>
		<path d="M24.663,32.591c-0.093,0.713,0.411,1.367,1.125,1.46l3.877,0.502c0.714,0.092,1.369-0.411,1.461-1.125
			c0.093-0.714-0.412-1.368-1.125-1.46l-3.878-0.502C25.409,31.374,24.755,31.877,24.663,32.591z"/>
		<path d="M8.377,43.865l2.264-3.188c0.417-0.587,0.278-1.4-0.309-1.817s-1.4-0.278-1.817,0.308l-2.264,3.189
			c-0.416,0.585-0.278,1.4,0.31,1.816C7.146,44.59,7.96,44.453,8.377,43.865z"/>
		<path d="M20.896,23.982c0.586,0.416,1.399,0.278,1.816-0.309l2.264-3.188c0.417-0.586,0.278-1.401-0.308-1.817
			c-0.588-0.417-1.401-0.279-1.818,0.309l-2.263,3.188C20.171,22.751,20.308,23.564,20.896,23.982z"/>
	</g>
</g>
</svg>
