<?xml version="1.0" encoding="utf-8"?>
<!-- Generator: Adobe Illustrator 16.0.0, SVG Export Plug-In . SVG Version: 6.00 Build 0)  -->
<!DOCTYPE svg PUBLIC "-//W3C//DTD SVG 1.1//EN" "http://www.w3.org/Graphics/SVG/1.1/DTD/svg11.dtd">
<svg version="1.1" id="Layer_1" xmlns="http://www.w3.org/2000/svg" xmlns:xlink="http://www.w3.org/1999/xlink" x="0px" y="0px"
	 width="100px" height="100px" viewBox="0 0 100 100" enable-background="new 0 0 100 100" xml:space="preserve">
<g id="Layer_2_copy">
</g>
<g id="Layer_1_1_">
</g>
<g id="Layer_4">
	<path d="M61.109,46.59v7.669h5.475V13.947h-5.475v22.356c-1.558-3.365-4.593-5.903-8.271-6.785V13.947h-5.474V29.46
		c-3.603,0.781-6.614,3.144-8.272,6.324V13.947h-5.475V54.26h5.475v-7.149c2.046,3.922,6.149,6.604,10.881,6.604
		C54.908,53.715,59.164,50.797,61.109,46.59z"/>
	<path d="M6.105,13.947v33.78c-3.528,1.705-5.961,5.318-5.961,9.498c0,4.182,2.434,7.793,5.961,9.498v19.334h5.474v-72.11H6.105
		L6.105,13.947z"/>
	<path d="M99.855,57.225c0-4.16-2.41-7.756-5.91-9.473V13.947h-5.475v72.108h5.475V66.693C97.445,64.98,99.855,61.383,99.855,57.225
		z"/>
	<g>
		<path d="M61.109,54.305h1.875c-0.271-0.016-0.549-0.025-0.828-0.025l-9.293-0.004v31.746h8.246V54.305z"/>
		<path d="M74.855,13.947v53.887c-0.233-5.566-3-10.895-8.271-12.807v30.994l13.745,0.033V13.947H74.855L74.855,13.947z"/>
	</g>
	<g>
		<path d="M25.344,66V13.944h-5.475v72.013l13.733,0.063v-31.08C29.017,56.523,26.039,60.754,25.344,66z"/>
		<path d="M37.733,54.27c-0.318,0-0.629,0.014-0.938,0.035h2.281v31.717h8.312V54.273L37.733,54.27z"/>
	</g>
</g>
</svg>
