<?xml version="1.0" encoding="utf-8"?>
<!-- Generator: Adobe Illustrator 16.0.0, SVG Export Plug-In . SVG Version: 6.00 Build 0)  -->
<!DOCTYPE svg PUBLIC "-//W3C//DTD SVG 1.1//EN" "http://www.w3.org/Graphics/SVG/1.1/DTD/svg11.dtd">
<svg version="1.1" id="Layer_1" xmlns="http://www.w3.org/2000/svg" xmlns:xlink="http://www.w3.org/1999/xlink" x="0px" y="0px"
	 width="100px" height="88.889px" viewBox="0 0 100 88.889" enable-background="new 0 0 100 88.889" xml:space="preserve">
<path d="M95.833,77.778l-5.702-14.51c-0.107-0.216-0.271-0.399-0.472-0.534c0,0-6.169-3.938-7.714-5.789
	c-1.396-1.672-2.778-5.556-4.314-7.564c-0.465-0.61-2.631-0.77-4.02,0.62c0,0-1.797,2.777-2.778,2.777
	c-2.778,0-3.278-1.361-4.438-1.361c-1.117,0-2.313,2.367-2.506,2.75l-2.529,6.121l-1.082,1.153l-5.243-4.193
	c-0.257-0.203-0.562-0.305-0.867-0.305c-0.408,0-0.812,0.18-1.085,0.521l-2.295,2.87l-9.18-3.935
	c-0.074-0.375-0.222-0.738-0.458-1.069l-6.427-8.999V34.722c0-0.019-0.004-0.035-0.005-0.054C34.673,29.14,27.76,25,22.222,25
	l-0.001,0.002c-0.377,0-0.76,0.073-1.126,0.235l-12.5,5.556C7.79,31.151,7.202,31.87,7.012,32.73l-2.778,12.5
	c-0.333,1.498,0.611,2.981,2.108,3.313c0.204,0.045,0.405,0.066,0.605,0.066c1.273,0,2.421-0.88,2.708-2.176l0.143-0.644
	l3.396,1.455v11.347L2.748,72.956c-1.119,1.539-0.787,3.688,0.734,4.821H0v11.111h100V77.778H95.833z M47.527,64.41
	c-0.312,0.391-0.391,0.917-0.207,1.379c0.183,0.464,0.602,0.793,1.095,0.863l6.155,0.88l-1.793,1.912c0,0-4.456,0.839-5.555,1.39
	c-2.778,1.389-2.515,2.328-2.778,2.777c-1.215,2.083-4.167,4.167-4.167,4.167H32.62c0.85-0.632,1.408-1.636,1.408-2.777V61.11
	c0-0.685-0.203-1.355-0.583-1.926l-3.042-4.563l4.918,2.107l1.307,1.831c0.542,0.759,1.396,1.164,2.263,1.164
	c0.559,0,1.123-0.168,1.612-0.517c0.073-0.053,0.13-0.116,0.197-0.172l8.287,3.551L47.527,64.41z M27.778,43.056
	c0.334-0.51,0.825-1.164,1.39-1.874v6.039c0,0.579,0.181,1.145,0.517,1.614l2.527,3.539l-4.629-1.984l-1.194-1.791v-2.766
	C26.567,45.078,27.353,43.705,27.778,43.056z M12.13,35.301l6.86-3.048l-5.165,11.591c-0.114,0.163-0.211,0.339-0.296,0.522
	l-3.117-1.336L12.13,35.301z M8.365,77.041l11.111-15.278c0.431-0.594,0.664-1.309,0.664-2.042v-7.977l6.944,10.417V75
	c0,1.142,0.558,2.146,1.408,2.777H7.608C7.888,77.571,8.149,77.337,8.365,77.041z"/>
<circle cx="31.25" cy="18.75" r="6.25"/>
</svg>
