<?xml version="1.0" encoding="utf-8"?>
<!-- Generator: Adobe Illustrator 16.0.0, SVG Export Plug-In . SVG Version: 6.00 Build 0)  -->
<!DOCTYPE svg PUBLIC "-//W3C//DTD SVG 1.1//EN" "http://www.w3.org/Graphics/SVG/1.1/DTD/svg11.dtd">
<svg version="1.1" id="Layer_1" xmlns="http://www.w3.org/2000/svg" xmlns:xlink="http://www.w3.org/1999/xlink" x="0px" y="0px"
	 width="89.605px" height="90.807px" viewBox="0 0 89.605 90.807" enable-background="new 0 0 89.605 90.807" xml:space="preserve">
<g>
	<path d="M15.598,29C15.598,29,0,48.229,0,58.058c0,9.83,7.05,17.948,15.599,17.948c8.548,0,15.599-8.118,15.599-17.948
		C31.197,48.229,15.598,29,15.598,29z M19.188,72.844c0,0,5.792-5.792,9-14.167C28.188,58.677,29.188,67.512,19.188,72.844z"/>
	<path d="M64.51,20.238C58.524,10.968,52.546,3.156,50.07,0c-2.477,3.156-8.457,10.967-14.444,20.238
		c-3.594,5.525-7.152,11.603-9.957,17.452c4.229,6.489,8.584,14.578,8.584,20.369c0,7.474-3.494,14.029-8.729,17.755
		c1.046,1.735,2.214,3.367,3.506,4.854c5.468,6.286,12.914,10.14,21.037,10.14c8.118,0,15.563-3.854,21.032-10.14
		c5.465-6.284,8.895-14.982,8.892-24.526C80.06,46.968,72.342,32.284,64.51,20.238z M59.646,83.952c0,0,9.694-9.695,15.064-23.714
		C74.711,60.238,76.385,75.025,59.646,83.952z"/>
	<path d="M78.221,38.502l0.337,0.738c0.212,0.479,0.417,0.958,0.618,1.436c1.362-1.498,5.141-5.979,7.43-11.956
		c0,0,0.837,7.433-7.34,12.162c0.242,0.58,0.478,1.157,0.699,1.731c5.595-2.13,9.641-8.119,9.641-15.169
		c0-8.372-12.398-23.753-12.93-24.403l-1.188-1.464l-1.188,1.464c-0.328,0.403-5.213,6.468-8.88,13.014
		c0.552,0.828,1.104,1.668,1.656,2.524C71.132,24.893,75.198,31.815,78.221,38.502z"/>
</g>
</svg>
