<?xml version="1.0" encoding="utf-8"?>
<!-- Generator: Adobe Illustrator 16.0.0, SVG Export Plug-In . SVG Version: 6.00 Build 0)  -->
<!DOCTYPE svg PUBLIC "-//W3C//DTD SVG 1.1//EN" "http://www.w3.org/Graphics/SVG/1.1/DTD/svg11.dtd">
<svg version="1.1" id="Layer_1" xmlns="http://www.w3.org/2000/svg" xmlns:xlink="http://www.w3.org/1999/xlink" x="0px" y="0px"
	 width="396px" height="126px" viewBox="0 0 396 126" enable-background="new 0 0 396 126" xml:space="preserve">
<rect y="27" fill="#00CC00" width="132" height="99"/>
<rect x="132" y="27" fill="#FF0000" width="132" height="99"/>
<rect x="264" y="27" fill="#CCCC00" width="132" height="99"/>
<rect fill="#FFFFFF" width="396" height="36"/>
<g>
	<path d="M148.387,18.073c-1.367-1.067-3.554-1.145-4.367-1.134l-0.184-3.971c0,0,0.03-0.571-0.462-1.019l-1.805-1.5l-0.713,0.033
		c-0.118-0.106-0.239-0.21-0.363-0.311c-1.241-1.643-3.271-2.695-5.537-2.678c-0.557-0.106-1.139-0.15-1.735-0.123
		c-2.391,0.112-4.439,1.335-5.568,3.089c-1.99,1.759-3.188,4.294-3.059,7.057l0.01,0.214l-0.842,0.034c0,0-3.581,0.067-5.824,0.77
		c-2.042,0.641-2.243,1.309-2.092,1.552c0.439,0.708,2.93,0.955,5.384,1.387c2.453,0.432,6.918,1.452,8.557,1.785
		c1.638,0.332,6.034,1.812,11.1,1.256c5.068-0.554,6.811-1.647,7.896-2.731C150.075,20.496,149.476,18.926,148.387,18.073z
		 M143.024,12.309c0.423,0.413,0.397,0.935,0.397,0.935l0.257,5.511c0,0-0.777,0.841-1.453,1.191
		c-1.804,0.935-3.501,1.117-3.501,1.117l-0.275-5.949c-0.023-0.466,0.247-1.186,0.548-1.543l0.029-0.053l2.45-2.589L143.024,12.309z
		 M140.155,10.444l-1.158,1.141c-0.18-0.297-0.369-0.579-0.572-0.84c-1.19-1.536-2.783-2.917-4.478-2.934
		C136.307,7.757,138.497,8.842,140.155,10.444z M133.775,7.813c0.004,0,0.011,0,0.015,0c-0.007,0-0.014,0-0.018,0
		C133.772,7.813,133.773,7.813,133.775,7.813z M131.877,8.388c0.415-0.206,0.846-0.375,1.292-0.507l-0.69,1.325
		c-0.083,0.035-0.165,0.071-0.243,0.107c-0.438,0.203-0.857,0.448-1.252,0.731c-0.794,0.565-1.5,1.284-2.088,2.12
		c-1.181,1.669-1.904,3.812-1.958,6.146h-0.002c-0.024,0.147-0.15,0.266-0.308,0.273c-0.181,0.008-0.333-0.129-0.34-0.306
		c-0.001-0.011,0-0.02,0-0.029h-0.002C126.354,13.817,128.612,10.006,131.877,8.388z"/>
	<text transform="matrix(1 0 0 1 154.9775 24.6143)" font-family="'MyriadPro-Regular'" font-size="16">Atlanta Fire Rescue</text>
</g>
<text transform="matrix(1 0 0 1 45.5 90)" fill="#FFFFFF" font-family="'MyriadPro-Regular'" font-size="48">94%</text>
<text transform="matrix(1 0 0 1 177.5 90)" fill="#FFFFFF" font-family="'MyriadPro-Regular'" font-size="48">54%</text>
<text transform="matrix(1 0 0 1 309 90)" fill="#FFFFFF" font-family="'MyriadPro-Regular'" font-size="48">73%</text>
<g>
	<g>
		<path d="M-399.917-78.131l1.019,12.83c0,0.766,2.184,1.387,4.877,1.387c2.694,0,4.879-0.621,4.879-1.387l1.017-12.83H-399.917z
			 M-397.02-65.454c-0.005,0-0.01,0-0.016,0c-0.201,0-0.369-0.161-0.376-0.361l-0.452-10.531c-0.007-0.207,0.155-0.384,0.361-0.393
			c0.193-0.022,0.382,0.153,0.392,0.361l0.452,10.531C-396.652-65.64-396.811-65.463-397.02-65.454z M-393.645-65.826
			c0,0.208-0.168,0.377-0.377,0.377c-0.206,0-0.377-0.169-0.377-0.377v-10.53c0-0.208,0.171-0.377,0.377-0.377
			c0.209,0,0.377,0.169,0.377,0.377V-65.826z M-390.628-65.809c-0.012,0.201-0.176,0.36-0.377,0.36c-0.008,0-0.011,0-0.018,0
			c-0.207-0.009-0.369-0.185-0.359-0.392l0.448-10.532c0.012-0.208,0.165-0.388,0.395-0.36c0.207,0.009,0.37,0.186,0.359,0.393
			L-390.628-65.809z"/>
		<path d="M-392.043-80.632l-0.617,0.001c-0.001-0.359-0.139-0.695-0.393-0.949c-0.256-0.254-0.587-0.388-0.949-0.392
			c-0.741,0.001-1.343,0.603-1.345,1.344l-0.6,0.001c-3.259,0.004-3.95,1.562-3.949,2.221l11.808-0.012
			C-388.092-79.079-388.788-80.635-392.043-80.632z M-394.591-80.629c0-0.158,0.061-0.305,0.171-0.416
			c0.112-0.111,0.26-0.172,0.418-0.172c0.327-0.001,0.587,0.264,0.585,0.587L-394.591-80.629z"/>
	</g>
	<text transform="matrix(1 0 0 1 -382.9067 -67.7739)" font-family="'MyriadPro-Regular'" font-size="15.0946">Solid Waste Service</text>
</g>
</svg>
