<?xml version="1.0" encoding="utf-8"?>
<!-- Generator: Adobe Illustrator 16.0.0, SVG Export Plug-In . SVG Version: 6.00 Build 0)  -->
<!DOCTYPE svg PUBLIC "-//W3C//DTD SVG 1.1//EN" "http://www.w3.org/Graphics/SVG/1.1/DTD/svg11.dtd">
<svg version="1.1" id="Layer_1" xmlns="http://www.w3.org/2000/svg" xmlns:xlink="http://www.w3.org/1999/xlink" x="0px" y="0px"
	 width="126px" height="126px" viewBox="0 0 126 126" enable-background="new 0 0 126 126" xml:space="preserve">
<rect fill="#FFFFFF" width="126" height="36"/>
<rect y="36" fill="#999999" width="126" height="90"/>
<g>
	<g>
		<path d="M13.543,19.884l0.841,0.514c0.142,0,0.213-0.059,0.213-0.176c0-0.075-0.034-0.179-0.1-0.313l-1.856-3.487l-4.114,0.101
			c-0.185,0.009-0.276,0.104-0.276,0.288c0,0.042,0.058,0.1,0.175,0.176L9.279,17.5l-0.903,1.405C8.125,19.306,8,19.637,8,19.896
			c0,0.235,0.083,0.498,0.251,0.79l2.797,4.878c-0.067-0.309-0.101-0.602-0.101-0.878c0-0.492,0.154-0.978,0.464-1.455
			L13.543,19.884L13.543,19.884z"/>
		<path d="M14.623,17.037l2.308-3.575c-0.862-1.965-1.777-2.948-2.747-2.948c-0.586,0-0.978,0.164-1.179,0.489l-2.183,3.487
			L14.623,17.037L14.623,17.037z"/>
		<path d="M12.741,26.719h4.453v-4.628h-4.29c-0.527,0.752-0.857,1.263-0.991,1.53c-0.218,0.426-0.326,0.861-0.326,1.304
			C11.587,26.121,11.972,26.719,12.741,26.719L12.741,26.719z"/>
		<path d="M21.91,16.184l1.981-3.336c0.066-0.117,0.1-0.238,0.1-0.364c0-0.151-0.05-0.226-0.15-0.226
			c0.016,0-0.05,0.025-0.201,0.075l-0.903,0.414l-0.827-1.643C21.542,10.368,20.806,10,19.702,10h-5.155
			c0.627,0.193,1.053,0.38,1.279,0.564c0.527,0.418,1.066,1.204,1.618,2.358l1.029,2.158l-0.766,0.364
			c-0.075,0.034-0.113,0.1-0.113,0.201c0,0.125,0.079,0.197,0.238,0.213L21.91,16.184L21.91,16.184z"/>
		<path d="M23.891,26.03l2.885-5.243c-0.426,0.485-0.891,0.812-1.392,0.979c-0.402,0.134-0.976,0.201-1.719,0.201h-3.21v-0.665
			c0-0.259-0.063-0.389-0.188-0.389c-0.092,0-0.16,0.034-0.201,0.1l-2.032,3.524l2.107,3.236c0.159,0.243,0.296,0.338,0.414,0.288
			c0.116-0.033,0.175-0.096,0.175-0.188v-1.104h1.781C23.164,26.77,23.624,26.523,23.891,26.03L23.891,26.03z"/>
		<path d="M22.637,21.301h1.919c0.459,0,0.936-0.201,1.43-0.602c0.526-0.418,0.79-0.861,0.79-1.33c0-0.216-0.072-0.43-0.213-0.64
			l-2.283-3.487l-3.926,2.284L22.637,21.301L22.637,21.301z"/>
	</g>
	<text transform="matrix(1 0 0 1 29.6782 26.6235)" font-family="'MyriadPro-Regular'" font-size="16">Sustainability</text>
</g>
<text transform="matrix(1 0 0 1 39.5 89)" fill="#FFFFFF" font-family="'MyriadPro-Regular'" font-size="48">16%</text>
</svg>
